<svg version="1.1" id="Ebene_1" xmlns="http://www.w3.org/2000/svg" x="0" y="0" viewBox="0 0 2267.7 2267.7" style="enable-background:new 0 0 2267.7 2267.7" xml:space="preserve"><style>.st0{fill:#fff}</style><path class="st0" d="M1137 42.5c450.2 5.6 813.8 370.1 811.5 813.5-.5 96.8-74.2 172.8-168.9 174-97 1.2-173.3-73.3-176-171.8-6.2-228-143.9-402.3-361.4-457.4-236.4-59.9-492.3 87.7-560.4 321.9-7.6 26.1 2 40.6 18.9 57.4 181.2 180.4 362 361.2 542.5 542.3 72.7 73 83.4 153.2 32.3 229.1-59.2 87.8-183.6 104.5-259.2 29.9-217.1-214.6-432.2-431.2-647.7-647.3-57.7-57.8-52.1-129.1-41.5-201.8C383.6 343.2 742 37.6 1137 42.5z"/><path class="st0" d="M1163.3 2224.6c-392.4 15.5-731.2-252.2-819.9-616.5-15.3-62.7-21.7-128.6-24.2-193.3-3.8-99.4 72.7-175.5 169.5-176.1 96.7-.6 172 74.2 174.4 173.3 5.5 227.8 145.5 402.4 366.7 457.3 233 57.8 491-93.5 555.5-325 6.7-23.9-1.3-38.1-17.5-54.3-182.2-181.2-363.9-363-545.3-545-66.8-67-80.3-141.6-40.6-212.7 59-105.7 191-123.3 278.4-36.1 187.6 186.9 374.5 374.5 561.8 561.7 6.5 6.5 12.2 13.9 19.5 19.2 111.8 81.9 117.2 190 87.8 314.5-82.5 349.4-392.7 620.7-766.1 633z"/></svg>